<svg width="682" height="397" viewBox="0 0 682 397" fill="none" xmlns="http://www.w3.org/2000/svg">
<path d="M0 0H682V36H0V0Z" fill="#D4FDFD"/>
<path d="M476 46H0V83H326V74H359V64H403V56H476V46Z" fill="#D4FDFD"/>
<path d="M269 93H0V130H215V121H232V111H251V103H269V93Z" fill="#D4FDFD"/>
<path d="M188 140H0V177H161V168H171V158H179V150H188V140Z" fill="#D4FDFD"/>
<path d="M0 187H150V197H143V214H134V223H0V187Z" fill="#D4FDFD"/>
<path d="M124 233H0V269H115V249H124V233Z" fill="#D4FDFD"/>
<path d="M107 279H0V315H98V304H107V279Z" fill="#D4FDFD"/>
<path d="M98 325H0V361H89V343H98V325Z" fill="#D4FDFD"/>
<path d="M89 371H0V397H80V387H89V371Z" fill="#D4FDFD"/>
</svg>
