<svg width="588" height="122" viewBox="0 0 588 122" fill="none" xmlns="http://www.w3.org/2000/svg">
<path d="M1.36102 119.827L22.724 22.445L44.59 22.408L44.664 58.951L66.197 22.408L90.101 22.445L74.907 91.194H54.375L60.639 63.398L46.11 91.194H31.693L31.656 64.25L19.52 119.938L1.36102 119.827Z" fill="white"/>
<path d="M96.063 44.2H143.872L140.166 61.656H110.888L108.59 71.774H137.831L133.569 91.157L85.649 91.194L96.063 44.2ZM96.063 44.2H143.872L140.166 61.656H110.888L108.59 71.774H137.831L133.569 91.157L85.649 91.194L96.063 44.2ZM100.844 22.445L148.801 22.408L145.206 38.27H97.286L100.844 22.445ZM100.844 22.445L148.801 22.408L145.206 38.27H97.286L100.844 22.445Z" fill="white"/>
<path d="M154.002 22.445L209.224 22.408L205.665 38.316L188.247 38.353L176.647 91.157L156.412 91.194L168.012 38.39L150.519 38.353L154.002 22.445Z" fill="white"/>
<path d="M210.372 44.3491H247.73L254.068 91.1941L231.571 91.1571L229.199 63.3611H222.157L207.703 91.1941H183.798L209.037 46.3131L210.372 44.3491ZM246.878 38.2341L244.32 22.4091H221.564L212.669 38.2341H246.878Z" fill="white"/>
<path d="M272.87 22.445L292.216 22.408L280.875 73.441L309.301 73.404L305.373 91.157L257.601 91.194L272.87 22.445Z" fill="white"/>
<path d="M350.692 61.879L354.657 44.237H386.864L376.486 91.156H332.458L320.264 53.482L346.801 22.444L391.719 22.407L388.086 38.381H357.586L342.094 54.633L347.023 71.995H362.441L364.665 61.878L350.692 61.879Z" fill="white"/>
<path d="M395.185 44.2H442.994L439.288 61.656H410.01L407.712 71.774H436.953L432.691 91.157L384.77 91.194L395.185 44.2ZM395.185 44.2H442.994L439.288 61.656H410.01L407.712 71.774H436.953L432.691 91.157L384.77 91.194L395.185 44.2ZM399.965 22.445L447.923 22.408L444.328 38.27H396.407L399.965 22.445ZM399.965 22.445L447.923 22.408L444.328 38.27H396.407L399.965 22.445Z" fill="white"/>
<path d="M463.644 44.3491H501.001L507.338 91.1941L484.842 91.1571L482.471 63.3611H475.428L460.975 91.1941H437.07L462.308 46.3131L463.644 44.3491ZM500.149 38.2341L497.59 22.4091H474.835L465.939 38.2341H500.149Z" fill="white"/>
<path d="M524.498 22.4451H558.779L562.262 22.8161C567.896 23.4091 571.38 26.2401 572.714 31.3081C573.627 34.7691 574.085 37.9831 574.085 40.9491C574.085 48.6861 570.86 54.3981 564.411 58.0811L556.703 61.3811L576.914 119.939L556.864 119.902L535.429 62.3981L529.054 91.1951H509.264L519.604 44.1281H553.812L556.184 43.7941L557.407 43.3131L558.408 42.6821L558.928 41.5711V40.6441L558.408 39.5331L557.185 38.7181L555.85 38.3101L521.049 38.1631L524.498 22.4451Z" fill="white"/>
<path fill-rule="evenodd" clip-rule="evenodd" d="M549.599 119.468H25L29.688 96.921H543.061L549.599 119.468ZM321.921 99.132L317.757 115.811H310.666L314.83 99.132H321.921ZM277.394 99H266.394L251 116H262L264.042 113.862H273L273.442 116H284L277.394 99ZM265.473 111.757L271.229 104.786L272.659 111.757H265.473Z" fill="white"/>
<path d="M73.989 4.29601L70.334 13.097H62.167L65.822 4.29601H59.799L60.882 1.68701H81.277L80.194 4.29601H73.989Z" fill="white"/>
<path d="M88.247 1.68701H95.534L99.91 13.119H92.917L92.624 11.681H86.69L85.336 13.119H78.049L88.247 1.68701ZM91.45 5.57801L87.637 10.266H92.397L91.45 5.57801Z" fill="white"/>
<path d="M113.987 8.67404H120.958C120.04 10.119 118.619 11.224 116.694 11.991C114.768 12.758 112.34 13.141 109.407 13.141C106.233 13.141 103.71 12.673 101.838 11.737C99.966 10.8 99.03 9.60303 99.03 8.14303C99.03 6.44803 100.184 4.94804 102.493 3.64304C104.802 2.33804 107.979 1.68604 112.025 1.68604C114.973 1.68604 117.357 2.07704 119.176 2.85804C120.995 3.63904 121.748 4.75204 121.432 6.19704L114.822 6.17504C114.807 5.51104 114.571 5.01404 114.112 4.68104C113.653 4.35004 112.883 4.18404 111.799 4.18404C109.919 4.18404 108.633 4.78504 107.942 5.98704C107.25 7.18904 106.904 8.13604 106.904 8.82804C106.904 9.94904 107.919 10.509 109.95 10.509C110.957 10.509 111.769 10.365 112.386 10.078C113.002 9.79104 113.536 9.32304 113.987 8.67404Z" fill="white"/>
<path d="M135.848 4.29601L132.193 13.097H124.026L127.68 4.29601H121.657L122.74 1.68701H143.134L142.051 4.29601H135.848Z" fill="white"/>
<path d="M153.421 1.68701L149.248 13.097H142.142L146.316 1.68701H153.421Z" fill="white"/>
<path d="M168.739 8.67401H175.71C174.793 10.119 173.371 11.224 171.446 11.991C169.521 12.758 167.092 13.141 164.159 13.141C160.986 13.141 158.463 12.673 156.59 11.737C154.718 10.801 153.781 9.60301 153.781 8.14401C153.781 6.44901 154.935 4.94901 157.244 3.64401C159.553 2.33901 162.729 1.68701 166.776 1.68701C169.723 1.68701 172.108 2.07801 173.927 2.85901C175.746 3.64001 176.499 4.75301 176.183 6.19801L169.573 6.17601C169.557 5.51201 169.321 5.01501 168.862 4.68201C168.403 4.35101 167.633 4.18501 166.549 4.18501C164.669 4.18501 163.383 4.78601 162.692 5.98801C162 7.19001 161.654 8.13701 161.654 8.82901C161.654 9.95001 162.669 10.51 164.699 10.51C165.707 10.51 166.518 10.366 167.136 10.079C167.754 9.79101 168.288 9.32301 168.739 8.67401Z" fill="white"/>
<path d="M186.787 1.68701H194.074L198.45 13.119H191.457L191.164 11.681H185.231L183.877 13.119H176.59L186.787 1.68701ZM189.99 5.57801L186.177 10.266H190.937L189.99 5.57801Z" fill="white"/>
<path d="M217.062 10.354L216.092 13.096H199.488L203.549 1.66302H210.926L207.835 10.353H217.062V10.354Z" fill="white"/>
<path d="M254.398 10.465L253.631 13.097H239.148L242.419 1.68701H256.564L255.842 4.18501H247.405L246.908 5.97701H253.992L253.269 8.45401H246.186L245.622 10.466L254.398 10.465Z" fill="white"/>
<path d="M273.348 5.224L268.497 5.203C268.347 4.864 267.982 4.599 267.403 4.407C266.823 4.216 266.189 4.119 265.497 4.119C264.188 4.119 263.534 4.369 263.534 4.871C263.534 5.033 263.628 5.169 263.816 5.28C264.004 5.391 264.519 5.534 265.361 5.712L268.52 6.353C269.332 6.515 270.091 6.758 270.799 7.082C271.506 7.407 272.013 7.76 272.321 8.144C272.629 8.527 272.784 8.94 272.784 9.382C272.784 10.517 271.997 11.457 270.426 12.202C268.854 12.946 266.76 13.318 264.143 13.318C261.902 13.318 259.947 13.06 258.278 12.544C256.609 12.028 255.721 11.018 255.616 9.515L260.512 9.537C261.008 10.333 262.226 10.731 264.167 10.731C264.979 10.731 265.565 10.647 265.927 10.477C266.287 10.308 266.469 10.12 266.469 9.913C266.469 9.766 266.397 9.64 266.255 9.537C266.112 9.434 265.962 9.36 265.803 9.316C265.645 9.272 264.897 9.103 263.559 8.808C261.739 8.439 260.464 8.141 259.735 7.912C259.005 7.683 258.396 7.348 257.907 6.906C257.419 6.463 257.174 5.947 257.174 5.357C257.174 4.326 257.839 3.453 259.171 2.737C260.502 2.022 262.536 1.664 265.274 1.664C267.364 1.664 269.154 1.914 270.643 2.416C272.13 2.917 273.032 3.853 273.348 5.224Z" fill="white"/>
<path d="M280.883 8.89501L279.733 13.097H274.295L277.431 1.68701H283.635C285.094 1.68701 286.155 1.72401 286.816 1.79701C287.477 1.87001 288.162 2.05101 288.869 2.33901C289.575 2.62701 290.14 3.00901 290.561 3.48801C290.982 3.96701 291.192 4.48701 291.192 5.04701C291.192 6.10901 290.617 7.01501 289.466 7.76701C288.316 8.51901 286.672 8.89501 284.537 8.89501H280.883ZM281.56 6.46201H282.846C284.831 6.46201 285.824 6.05701 285.824 5.24601C285.824 4.50901 284.997 4.14101 283.343 4.14101H282.192L281.56 6.46201Z" fill="white"/>
<path d="M301.277 1.68701L297.103 13.097H289.997L294.17 1.68701H301.277Z" fill="white"/>
<path d="M308.812 13.118C306.511 13.118 304.518 12.699 302.834 11.858C301.148 11.018 300.307 9.80901 300.307 8.23201C300.307 6.41901 301.25 4.87501 303.139 3.60001C305.026 2.32501 307.496 1.68701 310.549 1.68701C312.986 1.68701 314.987 2.13201 316.55 3.02501C318.113 3.91701 318.897 5.07801 318.897 6.50701C318.897 8.35001 317.968 9.91201 316.111 11.195C314.252 12.477 311.819 13.118 308.812 13.118ZM308.857 10.598C309.864 10.598 310.63 10.358 311.158 9.87901C311.684 9.40001 312.097 8.69901 312.399 7.77801C312.7 6.85701 312.85 6.23401 312.85 5.90901C312.85 5.36401 312.621 4.94801 312.162 4.66001C311.703 4.37201 311.09 4.22801 310.323 4.22801C308.88 4.22801 307.86 4.79201 307.266 5.91901C306.672 7.04701 306.375 8.04601 306.375 8.91601C306.376 10.037 307.203 10.598 308.857 10.598Z" fill="white"/>
<path d="M339.967 1.68701L336.313 13.097H331.462L325.123 5.86601L323.114 13.097H317.79L321.445 1.68701H327.311L332.973 8.38701L334.733 1.68701H339.967Z" fill="white"/>
<path d="M348.246 1.68701H355.533L359.91 13.119H352.916L352.623 11.681H346.689L345.335 13.119H338.048L348.246 1.68701ZM351.449 5.57801L347.636 10.266H352.398L351.449 5.57801Z" fill="white"/>
<path d="M370.332 7.01605H380.394L378.319 13.141H375.004L374.8 11.903C373.477 12.714 371.402 13.1191 368.573 13.1191C366.498 13.1191 364.802 12.902 363.485 12.467C362.171 12.032 361.159 11.509 360.452 10.898C359.745 10.286 359.391 9.50805 359.391 8.56505C359.391 6.69305 360.481 5.07905 362.662 3.72205C364.843 2.36605 367.745 1.68805 371.37 1.68805C376.483 1.68805 379.559 3.05905 380.597 5.80005L374.709 5.77805C374.272 4.79105 373.129 4.29705 371.279 4.29705C369.61 4.29705 368.411 4.80505 367.681 5.82205C366.951 6.83905 366.587 7.83405 366.587 8.80705C366.587 10.104 367.639 10.753 369.745 10.753C371.384 10.753 372.549 10.288 373.241 9.35905H369.497L370.332 7.01605Z" fill="white"/>
<path d="M395.847 10.465L395.08 13.097H380.597L383.868 1.68701H398.014L397.291 4.18501H388.853L388.357 5.97701H395.441L394.719 8.45401H387.635L387.072 10.466L395.847 10.465Z" fill="white"/>
<path d="M428.401 1.68701H435.688L440.064 13.119H433.07L432.777 11.681H426.843L425.49 13.119H418.203L428.401 1.68701ZM431.604 5.57801L427.791 10.266H432.551L431.604 5.57801Z" fill="white"/>
<path d="M454.142 8.67401H461.113C460.195 10.119 458.774 11.224 456.85 11.991C454.923 12.758 452.496 13.141 449.562 13.141C446.389 13.141 443.867 12.673 441.993 11.737C440.121 10.801 439.184 9.60301 439.184 8.14401C439.184 6.44901 440.338 4.94901 442.648 3.64401C444.957 2.33901 448.133 1.68701 452.179 1.68701C455.127 1.68701 457.511 2.07801 459.331 2.85901C461.149 3.64001 461.902 4.75301 461.586 6.19801L454.977 6.17601C454.961 5.51201 454.725 5.01501 454.266 4.68201C453.807 4.35101 453.037 4.18501 451.953 4.18501C450.073 4.18501 448.787 4.78601 448.096 5.98801C447.404 7.19001 447.058 8.13701 447.058 8.82901C447.058 9.95001 448.074 10.51 450.104 10.51C451.111 10.51 451.923 10.366 452.541 10.079C453.156 9.79101 453.69 9.32301 454.142 8.67401Z" fill="white"/>
<path d="M476.002 4.29601L472.348 13.097H464.18L467.835 4.29601H461.812L462.895 1.68701H483.29L482.207 4.29601H476.002Z" fill="white"/>
<path d="M493.576 1.68701L489.402 13.097H482.296L486.47 1.68701H493.576Z" fill="white"/>
<path d="M501.11 13.118C498.809 13.118 496.816 12.699 495.131 11.858C493.446 11.018 492.606 9.80901 492.606 8.23201C492.606 6.41901 493.548 4.87501 495.437 3.60001C497.324 2.32501 499.794 1.68701 502.847 1.68701C505.284 1.68701 507.284 2.13201 508.848 3.02501C510.411 3.91701 511.195 5.07801 511.195 6.50701C511.195 8.35001 510.265 9.91201 508.409 11.195C506.552 12.477 504.118 13.118 501.11 13.118ZM501.156 10.598C502.163 10.598 502.929 10.358 503.457 9.87901C503.983 9.40001 504.396 8.69901 504.697 7.77801C504.998 6.85701 505.148 6.23401 505.148 5.90901C505.148 5.36401 504.919 4.94801 504.46 4.66001C504.001 4.37201 503.388 4.22801 502.621 4.22801C501.178 4.22801 500.159 4.79201 499.564 5.91901C498.97 7.04701 498.673 8.04601 498.673 8.91601C498.675 10.037 499.502 10.598 501.156 10.598Z" fill="white"/>
<path d="M532.266 1.68701L528.612 13.097H523.761L517.422 5.86601L515.414 13.097H510.09L513.745 1.68701H519.609L525.272 8.38701L527.032 1.68701H532.266Z" fill="white"/>
<path d="M574.606 27.701V20.752H572.01V19.823H578.255V20.752H575.649V27.701H574.606Z" fill="white"/>
<path d="M579.293 27.701V19.823H580.862L582.726 25.401C582.899 25.921 583.024 26.309 583.103 26.568C583.192 26.281 583.332 25.86 583.522 25.305L585.408 19.824H586.811V27.702H585.806V21.108L583.516 27.702H582.576L580.298 20.995V27.702L579.293 27.701Z" fill="white"/>
</svg>
